<?xml version="1.0" encoding="utf-8"?>
<!-- Generator: Adobe Illustrator 25.0.1, SVG Export Plug-In . SVG Version: 6.00 Build 0)  -->
<svg version="1.1" id="Capa_1" xmlns="http://www.w3.org/2000/svg" xmlns:xlink="http://www.w3.org/1999/xlink" x="0px" y="0px"
	 viewBox="0 0 389.1199951 290.3999939" style="enable-background:new 0 0 389.1199951 290.3999939;" xml:space="preserve">
<style type="text/css">
	.st0{fill:#212121;}
	.st1{fill-rule:evenodd;clip-rule:evenodd;fill:#127633;}
	.st2{fill-rule:evenodd;clip-rule:evenodd;fill:#E31B19;}
</style>
<g>
	<path class="st0" d="M311.1258545,223.5200195c-3.1609802,0.4199982-5.4009705,1.0789948-6.6509705,2.0789948
		c-1,0.7330017-1.5599976,1.9230042-1.4899902,3.1600037c-0.0440063,0.8059998,0.2589722,1.5919952,0.8299866,2.1600037
		c0.4559937,0.5809937,1.1740112,0.8939972,1.9100037,0.8300018c1.42099-0.0169983,2.7739868-0.6179962,3.7399902-1.6600037
		c1.0959778-1.1040039,1.6960144-2.6060028,1.6609802-4.1600037V223.5200195 M317.1258545,230.7490234l0.6589966,1
		c-0.7659912,0.8589935-1.8499756,1.3690033-3,1.4100037c-0.7449951,0.0069885-1.473999-0.2240143-2.0799561-0.6600037
		c-0.7180176-0.6419983-1.2360229-1.4790039-1.4900513-2.4100037c-0.8609619,1.0130005-1.9019775,1.8560028-3.0699768,2.4900055
		c-0.9989929,0.4189911-2.0769958,0.6169891-3.1599731,0.5800018c-1.4480286,0.0789948-2.881012-0.32901-4.0690002-1.1600037
		c-0.8890076-0.6970062-1.3840027-1.7819977-1.3300171-2.9100037c0-1.75,1-3.2400055,3.0800171-4.4900055
		c2.6459961-1.3119965,5.5229797-2.0999908,8.4689941-2.3199921v-2.5800018
		c-0.0200195-0.9349976-0.4470215-1.8150024-1.1700134-2.4100037c-0.7749939-0.6849976-1.7859802-1.0439911-2.8200073-1
		c-0.9559937-0.0169983-1.8999939,0.2140045-2.7399902,0.6699982c-0.5799866,0.3300018-0.9100037,0.6600037-0.9100037,0.9100037
		s0.1600037,0.5,0.4900208,0.9199982c0.2839966,0.3560028,0.4579773,0.7870026,0.5,1.2400055
		c0.0999756,0.9559937-0.5960083,1.8110046-1.552002,1.9109955c-0.1190186,0.0110016-0.2390137,0.0110016-0.3580017,0
		c-0.5800171,0.026001-1.1470032-0.1829987-1.5700073-0.5809937c-0.4150085-0.4499969-0.6279907-1.0490112-0.5899963-1.6600037
		c0.0769958-1.3899994,0.8619995-2.6439972,2.0799866-3.3200073c1.5910034-1.0709991,3.4850159-1.5979919,5.3999939-1.5
		c1.65802-0.1159973,3.3039856,0.3540039,4.6499939,1.3300018c1.0020142,0.7750092,1.5859985,1.9730072,1.5800171,3.2400055
		v9.4700012c-0.03302,0.6360016,0.1090088,1.2689972,0.4099731,1.8300018c0.2280273,0.375,0.6409912,0.5970001,1.0800171,0.5800018
		c0.5510254-0.0050049,1.0809937-0.2120056,1.4899902-0.5800018H317.1258545z M295.4248962,205.1590271v24.9299927
		c-0.0480042,0.3159943,0.0769958,0.6340027,0.3299866,0.8300018c0.3439941,0.2330017,0.7539978,0.348999,1.1699829,0.3300018
		h1.7400208v1.4100037h-9.7200012v-1.4100037h1.75c0.4530029,0.0309906,0.8990173-0.1200104,1.2399902-0.4199982
		c0.2730103-0.2929993,0.4230042-0.6790009,0.4200134-1.0800018v-21c0.0429993-0.4960022-0.1419983-0.9840088-0.5-1.3300018
		c-0.4530029-0.4069977-1.052002-0.6159973-1.6600037-0.5800018h-1.5799866v-1.4100037L295.4248962,205.1590271z
		 M267.1948853,222.859024h7.4700012c0.3959961,0.0099945,0.7709961-0.177002,1-0.5
		c0.3190002-0.4309998,0.4649963-0.9660034,0.4100037-1.5c0.0610046-1.2710114-0.4230042-2.5070038-1.3300171-3.4000092
		c-0.6839905-0.9199982-1.7539978-1.473999-2.8999939-1.5c-1.3009949,0.0230103-2.5090027,0.6750031-3.2399902,1.75
		C267.6098938,219.2370148,267.1168823,221.0370178,267.1948853,222.859024 M279.5648804,224.1590271h-12.3699951
		c0.0800171,2.5709991,0.5800171,4.4799957,1.4899902,5.5599976c1.0130005,1.1409912,2.4750061,1.7809906,4,1.75
		c2.4100037,0,4.401001-1.3300018,5.8099976-4.0690002l1.1600037,0.5c-1.7389832,3.4929962-4.3139954,5.2359924-7.7200012,5.2289886
		c-2.2049866,0.0480042-4.322998-0.8600006-5.8089905-2.4899902c-1.6149902-1.7330017-2.4809875-4.0319977-2.4110107-6.4000092
		c-0.1279907-2.4829865,0.70401-4.92099,2.3200073-6.8099976c1.4570007-1.6869965,3.5920105-2.6340027,5.8200073-2.5789948
		c1.5220032-0.0570068,3.0149841,0.4129944,4.2309875,1.3289948c1.3070068,0.8890076,2.2980042,2.1710052,2.8300171,3.6600037
		C279.3368835,221.2400208,279.5558777,222.6950226,279.5648804,224.1590271 M252.3249054,216.4290161
		c-1.2529907-0.0579987-2.447998,0.5410004-3.1499939,1.5800018c-0.75,1.0800018-1.1700134,3-1.1700134,5.5700073
		c0,2.8209991,0.4200134,4.8099976,1.1700134,5.8899994c0.6499939,1.0769958,1.8119812,1.7399902,3.0699768,1.75
		c1.3800049-0.0340118,2.6530151-0.75,3.4000244-1.9090118c1.114975-1.6639862,1.6429901-3.6529999,1.4999847-5.6509857
		c0.1279907-1.9610138-0.4309998-3.9060059-1.5800018-5.5c-0.7420044-1.0559998-1.9490051-1.6890106-3.2399902-1.7000122
		V216.4290161z M253.3249054,205.3790131l6.8099823-0.25v23.6010132c-0.0620117,0.673996,0.1149902,1.3509979,0.5,1.9089966
		c0.401001,0.4319916,0.9849854,0.647995,1.5700073,0.5800018h1.17099v1.4099884h-5.8110046l-0.4899902-3.5690002
		c-0.605011,1.1180115-1.4229889,2.1060028-2.4089813,2.9090118c-0.9720154,0.6059875-2.0960083,0.9219971-3.2409973,0.9099884
		c-1.9620056-0.0149994-3.8059998-0.9339905-5-2.4899902c-1.4850159-1.8209991-2.2279968-4.1350098-2.0800171-6.4799957
		c-0.1170044-2.6000061,0.8450012-5.1340027,2.6600037-7c1.2449951-1.3330078,2.9869995-2.0860138,4.8099976-2.0800018
		c1.0320129-0.0299988,2.0490112,0.2599945,2.9100037,0.8300018c0.9609985,0.6439972,1.7610016,1.4989929,2.3399811,2.5v-9.7190094
		c0.0209961-0.4859924-0.1999817-0.951004-0.5899963-1.2409973c-0.5559845-0.3049927-1.1859894-0.4499969-1.8199921-0.4199982
		h-1.3299866V205.3790131z M224.0048981,216.4590149c-1.2529907-0.0569916-2.4459839,0.5420074-3.1499939,1.5800018
		c-0.75,1.0800018-1.1600037,3-1.1600037,5.5700073c0,2.8199921,0.4100037,4.8099976,1.1600037,5.8899994
		c0.6489868,1.0769958,1.8129883,1.7399902,3.0700073,1.75c1.3819885-0.0370026,2.6569824-0.7510071,3.4109802-1.9100037
		c1.1070251-1.6670074,1.6300049-3.6529999,1.4890137-5.6490021c0.1260071-1.9579926-0.4330139-3.8990021-1.5800171-5.4909973
		C226.51091,217.1280212,225.3029022,216.4790192,224.0048981,216.4590149 M225.0048981,205.4090271l6.8099976-0.25v23.5999908
		c-0.0539856,0.6750031,0.1230164,1.348999,0.5,1.9100037c0.4040222,0.4349976,0.9909973,0.6490021,1.5800171,0.5800018h1.1600037
		v1.4100037h-5.8100281l-0.5-3.5700073c-0.6049805,1.1190033-1.4229736,2.1069946-2.4089966,2.9100037
		c-0.9700012,0.6100006-2.0950012,0.927002-3.2409973,0.9100037c-1.9620056-0.0140076-3.8059998-0.9330139-5-2.4900055
		c-2.9790039-4.0690002-2.7379761-9.6609955,0.5800171-13.4600067c1.2469788-1.3339996,2.993988-2.0879974,4.8199768-2.0800018
		c1.0290222-0.0279999,2.0420227,0.2620087,2.9000244,0.8300018c0.9579773,0.6399994,1.7559814,1.4920044,2.3299866,2.4900055
		v-9.7189941c0.019989-0.4840088-0.196991-0.9459991-0.5799866-1.2410126
		c-0.5599976-0.3029938-1.1930237-0.4489899-1.8300171-0.4199982h-1.3299866L225.0048981,205.4090271z M208.4748993,223.5200195
		c-3.1499939,0.4199982-5.3890076,1.0789948-6.6390076,2.0789948c-1.0029907,0.7310028-1.5650024,1.9220123-1.4909973,3.1600037
		c-0.0440063,0.8059998,0.2579956,1.5919952,0.8300171,2.1600037c0.4559937,0.5809937,1.1739807,0.8939972,1.9109802,0.8300018
		c1.4170227-0.0160065,2.7669983-0.6170044,3.7290039-1.6600037c1.0960083-1.1040039,1.6950073-2.6060028,1.6600037-4.1600037
		V223.5200195z M214.4748993,230.7490234l0.6700134,1c-0.7680054,0.8580017-1.8500061,1.3659973-3,1.4100037
		c-0.7460022,0.0079956-1.4750061-0.2230072-2.0800171-0.6600037c-0.7189941-0.6419983-1.2359924-1.4790039-1.4899902-2.4100037
		c-0.8640137,1.0140076-1.9079895,1.8569946-3.0800171,2.4900055c-0.9949951,0.4189911-2.0709839,0.6169891-3.1499939,0.5800018
		c-1.447998,0.0799866-2.8819885-0.3280029-4.0699768-1.1600037c-0.8880005-0.6970062-1.3840027-1.7819977-1.3300171-2.9100037
		c0-1.75,1-3.2400055,3.0700073-4.4900055c2.6489868-1.3099976,5.5239868-2.0979919,8.4700012-2.3199921v-2.5800018
		c-0.0159912-0.9340057-0.4400024-1.8139954-1.1600037-2.4100037c-0.7789917-0.6799927-1.7869873-1.0370026-2.8200073-1
		c-0.9559937-0.0169983-1.8999939,0.2140045-2.7399902,0.6699982c-0.5800171,0.3300018-0.9200134,0.6600037-0.9200134,0.9100037
		s0.1700134,0.5,0.5,0.9199982c0.2810059,0.3590088,0.4530029,0.7880096,0.5,1.2400055
		c0.0220032,0.5169983-0.1569824,1.022995-0.5,1.4109955c-0.3829956,0.3500061-0.8909912,0.5299988-1.4100037,0.5
		c-0.5829773,0.0240021-1.151001-0.1849976-1.5799866-0.5809937c-0.4070129-0.45401-0.6159973-1.0510101-0.5799866-1.6600037
		c0.0759888-1.3899994,0.8619995-2.6439972,2.0799866-3.3200073c1.5899963-1.072998,3.4849854-1.5999908,5.3999939-1.5
		c1.6589966-0.1159973,3.3040161,0.3540039,4.6499939,1.3300018c1,0.776001,1.5810242,1.9750061,1.5700073,3.2400055v9.4700012
		c-0.0299988,0.6369934,0.1149902,1.2709961,0.4200134,1.8300018c0.2269897,0.3769989,0.6409912,0.598999,1.0799866,0.5800018
		c0.5480042-0.0040131,1.0750122-0.2109985,1.480011-0.5800018H214.4748993z M185.2248993,216.4590149
		c-1.2539978-0.0589905-2.446991,0.5400085-3.1499939,1.5800018c-0.75,1.0800018-1.1700134,3-1.1700134,5.5700073
		c0,2.8199921,0.4200134,4.8099976,1.1700134,5.8899994c0.6499939,1.0769958,1.8120117,1.7399902,3.0700073,1.75
		c1.3789978-0.0350037,2.6519775-0.75,3.3999939-1.9100037c1.1149902-1.6640015,1.6430054-3.6519928,1.5-5.6490021
		c0.1350098-1.9720001-0.4230042-3.9279938-1.5800171-5.5309906
		C187.7229156,217.1030273,186.5159149,216.4700165,185.2248993,216.4590149 M186.2248993,205.4090271l6.8099976-0.25v23.5999908
		c-0.0629883,0.6759949,0.1140137,1.352005,0.5,1.9100037c0.401001,0.4329987,0.9840088,0.647995,1.5700073,0.5800018h1.1700134
		v1.4100037h-5.8200073l-0.4900208-3.5700073c-0.6049805,1.1190033-1.4229736,2.1069946-2.4099731,2.9100037
		c-0.9710083,0.6069946-2.0950012,0.9219971-3.2400208,0.9100037c-1.9609985-0.0140076-3.8059998-0.9330139-5-2.4900055
		c-1.4849854-1.8200073-2.2279968-4.1349945-2.0799866-6.4790039c-0.1170044-2.6009979,0.8450012-5.1340027,2.6600037-7
		c1.243988-1.3329926,2.9869995-2.0869904,4.8099976-2.0809937c1.0319824-0.0310059,2.0489807,0.2590027,2.9100037,0.8309937
		c0.9609985,0.6329956,1.7639771,1.4779968,2.3499756,2.4690094v-9.7190094
		c0.0200195-0.4859924-0.1999817-0.951004-0.5899963-1.2409973c-0.5559998-0.3049927-1.1860046-0.4499969-1.8199768-0.4199982
		h-1.3300171V205.4090271z M166.1248932,215.4090271l6.8099976-0.1700134v14.8800049
		c-0.0489807,0.3170013,0.0770264,0.6340027,0.3300171,0.8300018c0.3049927,0.2420044,0.6910095,0.3609924,1.0799866,0.3300018
		h1.9100037v1.4109955h-9.6900024v-1.4109955h1.7399902c0.4160156,0.0569916,0.8370056-0.0619965,1.1600037-0.3300018
		c0.2870178-0.3209991,0.4370117-0.7400055,0.4200134-1.1699982v-10.9100037
		c0.0700073-0.5890045-0.1459961-1.1759949-0.5799866-1.5800018c-0.5100098-0.3589935-1.1270142-0.5359955-1.7500305-0.5h-1.4099731
		L166.1248932,215.4090271z M170.9449005,205.1590271c0.5280151-0.0010071,1.0350037,0.2079926,1.4100037,0.5799866
		c0.394989,0.3970032,0.605011,0.9410095,0.5799866,1.5c0,1.105011-0.894989,2-2,2
		c-0.5589905,0.026001-1.1029968-0.1849976-1.5-0.5799866c-0.3939819-0.3960114-0.6049805-0.9410095-0.5799866-1.5
		c0-0.5279999,0.2080078-1.0350037,0.5799866-1.4100037C169.832901,205.3480225,170.3809052,205.1340179,170.9449005,205.1590271
		 M152.9449005,226.1590271c0.506012,1.644989,1.3859863,3.1509857,2.5700073,4.4009857
		c1.0829773,0.7920074,2.3989868,1.20401,3.7399902,1.1700134c1.0670166,0.0919952,2.1329956-0.2020111,3-0.8300018
		c0.7290039-0.5180054,1.1619873-1.3570099,1.1600037-2.25c-0.0079956-0.473999-0.151001-0.9349976-0.4100037-1.3310089
		c-0.2630005-0.3829956-0.6409912-0.673996-1.0799866-0.8300018c-1.1930237-0.3999939-2.4179993-0.7049866-3.6600037-0.9099884
		c-1.3460083-0.1640015-2.6610107-0.5270081-3.8999939-1.0800018c-0.7360229-0.404007-1.3400269-1.0120087-1.7400208-1.75
		c-0.401001-0.7060089-0.6049805-1.5079956-0.5899963-2.3200073c0.0100098-1.2460022,0.4519958-2.4509888,1.25-3.4089966
		c1.1289978-1.3430023,2.8190002-2.0820007,4.5700073-2c1.5140076,0.0050049,2.9790039,0.5310059,4.1499939,1.4889984
		l1.25-1.3300018h0.7399902l0.5,6.1500092h-1.2399902c-0.3909912-1.4290009-1.1700134-2.723999-2.25-3.7400055
		c-0.9329834-0.7700043-2.1099854-1.1809998-3.3200073-1.1600037c-1.0099792-0.0809937-2.0149841,0.2150116-2.8199768,0.8300018
		c-0.6540222,0.522995-1.0240173,1.322998-1,2.1600037c0.0249939,0.6929932,0.3629761,1.3370056,0.9199829,1.75
		c1.0830078,0.6600037,2.3059998,1.0579987,3.5700073,1.1600037c1.3609924,0.1679993,2.7009888,0.4729919,4,0.9099884
		c0.9249878,0.3090057,1.7359924,0.8870087,2.3299866,1.6610107c0.5809937,0.8259888,0.8730164,1.8199921,0.8300171,2.8300018
		c0.0059814,1.4669952-0.6340027,2.8649902-1.75,3.8190002c-1.2680054,1.0799866-2.8950195,1.6439972-4.5599976,1.5799866
		c-1.7220154-0.0029907-3.3919983-0.5879974-4.7400208-1.6599884l-1.4100037,1.4899902h-0.9099731l-0.4200134-6.8089905
		L152.9449005,226.1590271z M135.8348846,215.359024l6.1500244-0.25v6.8999939
		c0.4769897-1.848999,1.2909851-3.5950012,2.3999939-5.1499939c0.8110046-1.1150055,2.1119995-1.7669983,3.4899902-1.75
		c0.8080139-0.0610046,1.6010132,0.2440033,2.1600037,0.8309937c0.6000061,0.5890045,0.9320068,1.397995,0.9200134,2.2389984
		c0.0679932,0.6660004-0.1459961,1.3300018-0.5899963,1.8300018c-0.3510132,0.4170074-0.8650208,0.6620026-1.4100037,0.6699982
		c-0.5209961,0.0709991-1.0429993-0.1239929-1.3900146-0.519989c-0.355011-0.4160004-0.5310059-0.9550018-0.4899902-1.5
		c-0.0119934-0.4110107,0.1029968-0.8160095,0.3299866-1.1600037l0.25-0.5c0-0.25-0.0899963-0.3300018-0.3399963-0.3300018
		c-0.677002,0.0619965-1.303009,0.3889923-1.7399902,0.9100037c-0.9640198,0.946991-1.678009,2.118988-2.0800171,3.4099884
		c-0.6299744,1.70401-0.993988,3.4950104-1.0799866,5.3100128v3.7399902
		c-0.0020142,0.3540039,0.151001,0.6910095,0.4199829,0.9199982c0.4790039,0.2740021,1.0320129,0.3890076,1.5800171,0.3300018
		h2.1600037v1.4100037h-10.6799927v-1.4100037h1.75c0.440979,0.0559998,0.8849792-0.0630035,1.2399902-0.3300018
		c0.25-0.2059937,0.4020081-0.5069885,0.4199829-0.8300018v-10.969986c0.0470276-0.6490021-0.1289978-1.2950134-0.5-1.8300018
		c-0.3769836-0.4179993-0.9289856-0.6330109-1.4899902-0.5800018h-1.5L135.8348846,215.359024z M122.8649063,222.859024h7.4699783
		c0.3960266,0.0099945,0.7710266-0.177002,1-0.5c0.3190002-0.4309998,0.4650269-0.9660034,0.4100037-1.5
		c0.0610046-1.2710114-0.4229736-2.5070038-1.3299866-3.4000092c-0.6839905-0.9199982-1.7539978-1.473999-2.9000015-1.5
		c-1.3000183,0.0230103-2.5090027,0.6750031-3.2400208,1.75
		C123.2798843,219.2370148,122.7869034,221.0370178,122.8649063,222.859024 M135.2349091,224.1590271h-12.3700027
		c0.0799866,2.5709991,0.5799866,4.4799957,1.4899902,5.5599976c1.0130005,1.1409912,2.4750061,1.7809906,4.0000076,1.75
		c2.4100037,0,4.3999939-1.3300018,5.8099976-4.0690002l1.1600037,0.5
		c-1.7460022,3.5059967-4.3330078,5.2590027-7.7600174,5.2590027c-2.2049866,0.0479889-4.322998-0.8600006-5.8099976-2.4900055
		c-1.6140137-1.7330017-2.480011-4.0319977-2.4100037-6.3990021c-0.1269836-2.4839935,0.7030029-4.9210052,2.3200073-6.8110046
		c1.4570007-1.6869965,3.5920105-2.6339874,5.8200073-2.5800018c1.5210037-0.0559998,3.0149918,0.4140015,4.2299881,1.3300018
		c1.3080139,0.8890076,2.2990112,2.1710052,2.8300171,3.6600037
		C134.97789,221.2590179,135.2108917,222.7030182,135.2349091,224.1590271 M100.0248795,215.3490143h8.4700012v1.25
		c-0.7319946,0.003006-1.4599915,0.1139984-2.1600037,0.3300018c-0.3069763,0.1210022-0.5059814,0.4210052-0.5,0.75
		l0.1700134,0.8300018l4.5599976,10.25l4.1499939-9.8899994l0.1600037-0.5c0-0.9100037-0.9100037-1.4900055-2.6499939-1.7400055
		v-1.25h7.1400146v1.25c-0.6180115,0.0640106-1.2160034,0.2620087-1.75,0.5800018
		c-0.4400024,0.3530121-0.7840271,0.8100128-1,1.3300018l-6.2900085,14.6200104h-1l-6.7600098-15
		c-0.1419983-0.4460144-0.4360046-0.8280029-0.8299866-1.0800018c-0.5169983-0.2550049-1.0840149-0.3940125-1.6600037-0.4100037
		L100.0248795,215.3490143z M90.3949051,215.3490143l6.8099976-0.1699982v14.8809967
		c-0.0490112,0.3150024,0.0769958,0.6330109,0.3299866,0.82901c0.3039856,0.2449951,0.6910095,0.3629913,1.0799866,0.3300018
		h1.9500122v1.4099884h-9.7200012v-1.4099884h1.7200012c0.4160156,0.0569916,0.8359985-0.0630035,1.1600037-0.3300018
		c0.2839966-0.3220062,0.4309998-0.7409973,0.4100037-1.1699982v-10.8500061
		c0.0749817-0.5899963-0.1409912-1.177002-0.5800171-1.5800018c-0.5059814-0.3609924-1.1199951-0.5379944-1.7399902-0.5h-1.4100037
		L90.3949051,215.3490143z M95.2049026,205.1590271c0.5279846-0.0010071,1.0349731,0.2079926,1.4099731,0.5799866
		c0.3980103,0.3950043,0.6130066,0.9400024,0.5900269,1.5c0.019989,0.5340118-0.1960144,1.0490112-0.5900269,1.4110107
		c-0.3609924,0.3919983-0.8769836,0.6039886-1.4099731,0.5800018c-0.5559998,0.0209961-1.0960083-0.1890106-1.4900208-0.5800018
		c-0.394989-0.3980103-0.6049805-0.9420013-0.5799866-1.5c-0.007019-0.5299988,0.2019958-1.0400085,0.5799866-1.4110107
		C94.1088943,205.3470154,94.6489029,205.1370239,95.2049026,205.1590271 M69.564888,215.3790131l5.730011-0.3299866
		c0.2709961,1.2579956,0.4389954,2.5349884,0.5,3.8199921c0.6459961-1.1699982,1.59198-2.1459961,2.7399902-2.8300018
		c1.0939941-0.5999908,2.321991-0.9140015,3.5700073-0.9100037c0.9859924-0.0259857,1.9609985,0.20401,2.8299866,0.6700134
		c0.8150024,0.5019989,1.4760132,1.2179871,1.9100037,2.0699921c0.4299927,1.0270081,0.6549988,2.1269989,0.6600037,3.2400055
		v8.3899994c-0.2009888,0.776001,0.2650146,1.5670013,1.0390015,1.7679901
		c0.2609863,0.0670013,0.5339966,0.0610046,0.7909851-0.0179901h1.230011v1.4100037h-9.0499878v-1.4100037h0.8299866
		c0.5740051,0.0569916,1.1520081-0.0579987,1.6600037-0.3300018c0.3429871-0.2879944,0.5289917-0.7230072,0.5-1.1699982v-7.3899994
		c0.0859985-1.2360077-0.1730042-2.4720001-0.75-3.5700073c-0.6820068-1.0889893-1.9079895-1.7160034-3.1900024-1.6299896
		c-1.3309937,0.0109863-2.5849915,0.625-3.4100037,1.6699982c-0.9790039,1.2519989-1.4790039,2.8129883-1.4100037,4.401001
		v6.3089905c-0.0419922,0.5090027,0.1080017,1.0160065,0.4200134,1.4199982
		c0.4499817,0.2640076,0.9710083,0.3800049,1.4899902,0.3300018h1.1600037v1.4100037h-9.1300049v-1.4100037h1.1600037
		c0.4930115,0.0410004,0.9859924-0.0749969,1.4100037-0.3300018c0.3039856-0.2099915,0.4890137-0.5509949,0.5-0.9199982v-11.1699982
		c0.0230103-0.647995-0.2139893-1.2779999-0.6600037-1.75c-0.4779968-0.3549957-1.0660095-0.5279999-1.6600037-0.4900055H69.564888
		V215.3790131z M40.5649071,205.3790131h12.5399933v1.4100037h-2.4900055
		c-0.493988-0.0639954-0.9949951,0.053009-1.4099884,0.3300018c-0.2690125,0.2630005-0.4210052,0.6230011-0.4200134,1v15.3699951
		c-0.0299988,1.2340088,0.1119995,2.4650116,0.4200134,3.6610107c0.4269867,1.2009888,1.243988,2.2249908,2.3199921,2.9099884
		c1.3009949,0.780014,2.8050079,1.1560059,4.3199921,1.07901c2.0650024,0.1419983,4.1000061-0.548996,5.6499939-1.9199982
		c1.3720093-1.352005,2.1000061-3.227005,2-5.1500092v-12.4299927c0.0280151-0.8639984-0.0559998-1.7279968-0.25-2.5700073
		c-0.1329956-0.4809875-0.3569946-0.9319916-0.6600037-1.3300018c-0.2679749-0.344986-0.651001-0.5839996-1.0799866-0.6699982
		c-0.7309875-0.2089996-1.4909973-0.2929993-2.25-0.25v-1.4099884H69.564888v1.4099884h-0.75
		c-0.946991-0.0629883-1.8779907,0.2700043-2.5700073,0.9199982c-0.6159973,0.7400055-0.9140015,1.6920013-0.8299866,2.6500092
		v13.4599915c0.1589966,2.4700012-0.7470093,4.8910065-2.4899864,6.6500092
		c-2.0570068,1.8170013-4.73703,2.7709961-7.480011,2.6600037c-2.1889954,0.0849915-4.3699951-0.3110046-6.3899994-1.1600037
		c-1.4599915-0.6450043-2.6389923-1.7960052-3.3199921-3.2400055c-0.6090088-1.298996-0.8940125-2.727005-0.8300018-4.1600037
		v-16.4399872c0.0009918-0.3769989-0.1500092-0.7369995-0.4199982-1c-0.3910065-0.2630005-0.8610077-0.3800049-1.3300018-0.3300018
		h-2.5899963V205.3790131z"/>
	<path class="st0" d="M370.3549805,265.6893311c-7.5800171,1-12.9299927,2.7099915-16.0499878,5.1099854
		c-2.3909912,1.7650146-3.7390137,4.6110229-3.5900269,7.5800171c-0.0830078,1.9509888,0.5740356,3.8619995,1.8400269,5.3500061
		c1.2440186,1.302002,2.9909668,2.0019836,4.789978,1.9199829c3.427002-0.0180054,6.69104-1.4689941,9-4
		c2.6500244-2.6430054,4.0960083-6.2590027,4-10v-6 M384.9549561,283.2093201l1.6000366,2.480011
		c-1.8320313,2.1159973-4.4719849,3.3630066-7.2700195,3.4299927c-1.8629761,0.0670166-3.684021-0.5599976-5.1099854-1.7599792
		c-1.3499756-1-2.5499878-2.9500122-3.5900269-5.7400208c-2.1459961,2.4049988-4.6809692,4.434021-7.5,6
		c-2.4099731,1.0769958-5.0319824,1.5979919-7.6699829,1.5190125c-4.2299805,0-7.5-1-9.8200073-2.7900085
		c-2.1170044-1.7470093-3.3209839-4.3649902-3.2699585-7.1090088c0-4.3909912,2.5499878-8,7.5799561-10.7799988
		c5.0300293-2.7789917,11.9000244-4.7789917,20.4400024-5.7399902v-6.3099976
		c0.0010376-2.2660065-1.0249634-4.4090118-2.789978-5.8300018c-1.9089966-1.631012-4.3610229-2.4830017-6.8699951-2.3899994
		c-2.3380127-0.0580139-4.6500244,0.4919891-6.710022,1.5999908c-1.3499756,0.7900085-2,1.5899963-2,2.3090057
		c0.117981,0.802002,0.4660034,1.552002,1,2.1609955c0.7550049,0.8760071,1.2260132,1.9620209,1.3500366,3.1100006
		c0.0429688,1.2330017-0.4500122,2.4259949-1.3500366,3.2690125c-0.9190063,0.8869934-2.164978,1.3509827-3.4400024,1.2810059
		c-1.382019,0.0299988-2.7139893-0.5210266-3.6699829-1.5200195c-0.9609985-1.039978-1.4780273-2.414978-1.4400024-3.8299866
		c0-2.9500122,1.5999756-5.6700134,4.8699951-8.0600128s7.75-3.6699982,13.0999756-3.6699982
		c4.9500122,0,8.7000122,1,11.3300171,3.1900024c2.4840088,1.8629913,3.9390259,4.7939911,3.9199829,7.901001v22.82901
		c-0.0959473,1.5539856,0.2520142,3.1040039,1,4.4700012c0.5809937,0.8889771,1.5680542,1.4289856,2.6300049,1.4400024
		c1.3470459-0.0770264,2.6380005-0.5720215,3.6900024-1.4200134L384.9549561,283.2093201z M316.3949585,246.0293274
		l17.1100464-0.4199982v37.0000153c-0.0800171,0.7639771,0.1929932,1.5219727,0.7399902,2.0599976
		c0.7160034,0.664978,1.6640015,1.0229797,2.6400146,1h4.8499756v3.4899902h-24.4199829v-3.4500122h4.5199585
		c1.0950317,0.0930176,2.1799927-0.2689819,3-1c0.7010498-0.789978,1.0599976-1.8249817,1-2.8800049v-27.1299896
		c0.1040039-1.4420013-0.4379883-2.8569946-1.4799805-3.8600006c-1.289978-0.9190063-2.8599854-1.3580017-4.440979-1.2400055
		h-3.4590454L316.3949585,246.0293274z M266.394989,246.0293274l14.230011-0.8200073
		c0.6609802,3.1150055,1.098999,6.2730103,1.3099976,9.4499969c1.6539917-2.8609924,3.9689941-5.2849884,6.75-7.0699921
		c2.730011-1.5809937,5.8460083-2.3769989,9-2.3000031c2.4960022-0.0970001,4.9710083,0.4990082,7.1499939,1.7200012
		c2.0460205,1.2590027,3.677002,3.0910034,4.6900024,5.2700043c1.1880188,2.54599,1.7799988,5.3300171,1.730011,8.1400146
		v20.8799744c-0.1140137,1.2110291,0.2439575,2.4179993,1,3.3700256c1.039978,0.7639771,2.3249512,1.1199951,3.6099854,1h3
		v3.4899902h-22.6600037v-3.4500122h2.0599976c2.0500183,0,3.4500122-0.3299866,4.2700195-1
		c0.7859802-0.7460022,1.2059937-1.7980042,1.1499939-2.8800049v-18.3989868c0-4-0.5700073-7-1.8099976-8.881012
		c-1.6440125-2.7079926-4.6459961-4.2919922-7.8099976-4.118988c-3.3590088-0.0319977-6.5420227,1.4889984-8.6300049,4.118988
		c-2.3099976,2.7900085-3.460022,6.4100037-3.460022,10.9300232v15.868988
		c-0.1329956,1.2250061,0.256012,2.447998,1.0700073,3.3710022c1.0429993,0.7650146,2.3309937,1.1220093,3.6199951,1h2.9000244
		v3.4400024h-22.8000183v-3.4500122h3c1.2330017,0.0710144,2.45401-0.2819824,3.4599915-1
		c0.7220154-0.5439758,1.1470032-1.3959961,1.1500244-2.2999878v-27.7000122
		c0.1099854-1.5589905-0.4630127-3.0879974-1.5700073-4.1900024c-1.1679993-0.9829865-2.6660156-1.4829865-4.1900024-1.3999939
		h-2.2200012V246.0293274z M246.7150116,248.0293274c-3.3410034,0-6.4460144,1.7189941-8.2200012,4.5500031
		c-2.1600037,2.9499969-3.2000122,7.7400055-3.2000122,14.2899933c0,6.5500183,1,11.3300171,3.1199951,14.4500122
		c1.7920227,2.8509827,4.9320068,4.5709839,8.3000183,4.5499878c3.3919983,0.0200195,6.5570068-1.6959839,8.3899841-4.5499878
		c2.1500092-3.1199951,3.2700043-8.0700073,3.2700043-15c0-6.4710083-1-11.1000061-3.1899872-14.0000153
		c-1.9290161-2.7319946-5.0859985-4.3320007-8.4299927-4.2700043L246.7150116,248.0293274z M246.7150116,244.839325
		c5.3540039-0.0980072,10.4849701,2.1439972,14.0499725,6.1399994c3.9200134,4.0699921,5.8300171,9.3400116,5.8300171,16.0000153
		c0.1099854,4.0679932-0.7950134,8.0979919-2.6300049,11.7299805c-1.6620178,3.1630249-4.1809998,5.7940063-7.2700195,7.5899963
		c-3.094986,1.9070129-6.6649628,2.901001-10.2999725,2.8700256c-5.2520142,0.0409851-10.2640076-2.20401-13.730011-6.1500244
		c-3.75-4.0699768-5.5899963-9.42099-5.5899963-16c0-6.5799866,1.8399963-12,5.5899963-16.0499878
		c3.6000061-3.9680023,8.7330017-6.1940002,14.0900269-6.1100006L246.7150116,244.839325z M191.7850189,246.0293274h34.0599976
		v2.8000031l-27.0700073,36.8509979h13.1699829c2.7320251,0.1000061,5.3850098-0.9400024,7.3200073-2.8710022
		c1.730011-1.8999939,3.1300049-5.4299927,4.2000122-10.5299988h3l-0.8999939,16.8800049h-36.210022v-3.2099915l27-36.5190125
		h-11.3699951c-1.8630066-0.0940094-3.7219849,0.25-5.4299927,1c-1.3250122,0.7099915-2.3800049,1.8379974-3,3.2079926
		c-0.9100037,1.5610046-1.6499939,4.1110077-2.3900146,7.8209991h-3.4499817L191.7850189,246.0293274z M172.7850189,265.669342
		c-7.5900269,1-12.9400024,2.7099915-16.0000305,5.1099854c-2.3959961,1.7619934-3.7479858,4.6090088-3.5999756,7.5800171
		c-0.0830078,1.9509888,0.5739746,3.8629761,1.8399963,5.3499756c1.2449951,1.3000183,2.9920044,2,4.789978,1.9200134
		c3.4270325-0.0169983,6.6910095-1.4670105,9.0000305-4c2.6529846-2.6409912,4.098999-6.2579956,4-10L172.7850189,265.669342z
		 M187.3950043,283.2293396l1.5899963,2.4799805c-1.8150024,2.1140137-4.4349976,3.3659973-7.2200012,3.4500122
		c-1.8630066,0.0679932-3.6839905-0.5589905-5.1099854-1.7600098c-1.3600159-1-2.5599976-2.9499817-3.6000061-5.7399902
		c-2.1440125,2.4079895-4.6799927,4.4379883-7.5,6c-2.4100037,1.0780029-5.0320129,1.598999-7.6700134,1.5209961
		c-4.2299805,0-7.5-1-9.8200073-2.7919922c-2.1169739-1.7470093-3.3209839-4.3650208-3.269989-7.1090088
		c0-4.3909912,2.5500183-8,7.5800171-10.7799988s11.8999939-4.7799988,20.4499817-5.7399902v-6.3099976
		c0.0020142-2.2680206-1.0289917-4.4130096-2.7999878-5.8300171c-1.9089966-1.6309967-4.3609924-2.4839935-6.8699951-2.3899994
		c-2.335022-0.0599976-4.6440125,0.4920044-6.7000122,1.6000061c-1.3599854,0.7899933-2,1.5899963-2,2.3089905
		c0.1180115,0.802002,0.4649963,1.552002,1,2.1609955c0.7609863,0.8730011,1.2359924,1.9590149,1.3599854,3.1100159
		c0.0429993,1.2349854-0.4539795,2.4289856-1.3599854,3.2709961c-0.9160156,0.8840027-2.1589966,1.3470154-3.4299927,1.2789917
		c-1.3840027,0.0240173-2.7160034-0.526001-3.6799927-1.519989c-0.9580078-1.0410156-1.4720154-2.4160156-1.4300232-3.8299866
		c0-2.9500275,1.5899963-5.6700134,4.8699951-8.0600281c3.2799988-2.3899994,7.7400208-3.6699982,13.0900269-3.6699982
		c5,0,8.6999817,1,11.3399963,3.1900024c2.4779968,1.8670044,3.9279785,4.7969971,3.9100037,7.9000092v22.8299866
		c-0.0950012,1.5540161,0.2509766,3.1040039,1,4.4700012c0.5829773,0.8860168,1.5690002,1.4260254,2.6300049,1.4400024
		c1.3479919-0.0939941,2.6339722-0.6049805,3.6799927-1.4599915L187.3950043,283.2293396z M68.984993,246.0693207
		l12.3399963-0.7399902c0.625,3.0399933,1.0620117,6.1159973,1.3099976,9.2099915
		c1.78302-2.8359985,4.1360168-5.2720032,6.9100037-7.151001c2.3410034-1.375,5.0140076-2.0879974,7.730011-2.0589905
		c2.6629944-0.1080017,5.2810059,0.7070007,7.4100037,2.3089905c1.8899841,1.5610046,3.2799988,4.1110077,4.3499756,7.6410065
		c1.7360229-2.9410095,4.0950012-5.4670105,6.9100037-7.4000092c2.3900146-1.6579895,5.230011-2.548996,8.1400146-2.5499878
		c3.9499893,0,6.9100113,1.1599884,8.7999954,3.5399933c2.5500183,3,3.7900085,7,3.7900085,11.8399963v21.3000183
		c-0.0970154,0.9849854,0.2730103,1.9589844,1,2.6289978c1.098999,0.7919922,2.4400024,1.1679993,3.7900085,1.0709839h2.2200012
		v3.4500122h-21.650032v-3.4500122h2.1400146c1.8899841,0,3.1199951-0.3299866,3.859993-1
		c0.7940063-0.6679993,1.2210083-1.6749878,1.1500244-2.7099915v-21.2999878
		c0.1529846-2.7010193-0.6940002-5.3640137-2.3800125-7.480011c-1.5670166-1.7450104-3.8260193-2.7060089-6.1700134-2.6300049
		c-1.8710022-0.029007-3.7070007,0.5149994-5.2599792,1.5599976c-1.5870056,1.1240082-2.8380127,2.6589966-3.6200256,4.4400024
		c-1.17099,2.1589966-1.8539734,4.5490112-2,7v18.4200134c-0.0679932,1.052002,0.2929993,2.0879822,1,2.8699951
		c0.9179993,0.6260071,2.0230103,0.9190063,3.1300049,0.8299866h3v3.4500122h-22v-3.4500122h2.4700012
		c1.2579956,0.0960083,2.5100098-0.2579956,3.5299988-1c0.7220154-0.5439758,1.1480103-1.3959961,1.1499939-2.2999878v-19.8110046
		c0-4.1889954-0.7399902-7.2290039-2.2999878-9.1190033c-1.3630066-1.8939972-3.5880127-2.9759979-5.9200134-2.8809967
		c-2.8779907-0.1719971-5.6629944,1.052002-7.4799805,3.2899933c-2.4700012,3.102005-3.7820129,6.9669952-3.710022,10.931015
		v17.1900024c-0.1039734,0.992981,0.2280273,1.9809875,0.9100037,2.7099915c1.1300049,0.7730103,2.4960022,1.1279907,3.8600159,1
		h2.1699829v3.4400024H67.9149857v-3.4500122h3.2099915c1.053009,0.052002,2.085022-0.3069763,2.8800049-1
		c0.6530151-0.5839844,1.0180054-1.4239807,1-2.2999878v-28.1100159c0.1029968-1.3019867-0.3469849-2.5869904-1.2399902-3.5399933
		c-0.7399902-0.7400055-2.3800049-1.2299957-4.769989-1.4799957L68.984993,246.0693207z M34.5649986,233.2793274
		L22.635004,262.6593323h23.3900013L34.5649986,233.2793274z M33.685009,225.159317h2.8199921l22.4499969,57.3200226
		c0.9100037,2.3499756,2.8200073,3.4899902,5.6300011,3.4899902h2v3.1900024H41.454998v-3.1900024h2
		c2.6699982,0,4.4900055-0.2999878,5.5599976-0.9100037c0.6710052-0.3190002,1.0880127-1.0069885,1.0600128-1.75
		l-0.3000031-1.5100098l-5.1800079-13.289978H19.7649937l-2.8899994,7.5889893
		c-0.6499939,1.5450134-1.0349874,3.1879883-1.1399984,4.8609924c0.0410004,1.4219971,0.7430105,2.7420044,1.9000082,3.5700073
		c1.2899933,1,3.1199951,1.4400024,5.6299896,1.4400024h2.1300049v3.1900024H2.5649972v-3.1900024
		c2.0480042,0.1090088,4.076004-0.4490051,5.7799993-1.5899963c1.4500122-1.0700073,2.7400055-3.1199951,3.8800049-6.0800171
		L33.685009,225.159317z"/>
	<path class="st0" d="M327.8549194,222.468811c2.8709717-0.0839996,5.2659912,2.1760101,5.3499756,5.0460052
		c0.0029907,0.098999,0.0029907,0.1959991,0,0.2949982c0.0449829,1.4080048-0.507019,2.7689972-1.5200195,3.75
		c-1.0009766,1.0390015-2.3869629,1.6179962-3.8299561,1.598999c-2.9240112-0.0690002-5.276001-2.4249878-5.3400269-5.348999
		c-0.0170288-1.4409943,0.5620117-2.822998,1.5999756-3.8199921
		C325.0919189,222.9798126,326.4508667,222.4278259,327.8549194,222.468811"/>
	<path class="st1" d="M213.8148041,120.2992325c-0.3699951,0.6900024-0.1490173,1.0700073,0.6799927,1.0700073h16.9500122
		c1.0499878,0,1.6499939-0.4599915,1.7999878-1.2999878c0.6799927-3.1400146,0.6799927-5.6600037,0-7.5
		c-0.29599-0.9989929-0.8980103-1.8800049-1.7200012-2.5200195c-0.9580078-0.776001-2.1470032-1.2089844-3.3800049-1.2299805
		c-1.8209839,0.0859985-3.5950012,0.6109924-5.1699829,1.5299988c-1.7740173,1.0109863-3.3720093,2.3049927-4.730011,3.8299866
		C216.5237885,116.0312576,215.0367889,118.0862503,213.8148041,120.2992325 M104.4448013,89.0792313
		c0.0699768-0.3799744,0.3699951-0.6099854,0.8999939-0.6099854h72.2200089c1.1199951,0,1.651001,0.4599915,1.5,1.3800049
		l-2.7000122,19.7399902c-0.0350037,1.125-0.8450012,2.0760193-1.9499817,2.2900085
		c-4.3510132,1.5509949-8.506012,3.605011-12.3800049,6.1199951c-2.3330078,1.5620117-4.5010071,3.3580017-6.4700012,5.3599854
		c-2.4890137,2.4980164-4.5440063,5.3950119-6.0800171,8.5699997c-5,11.25-6.2200012,18.4400024-3.4499817,21.5800171
		c3.2339783,2.5999756,6.8329773,2.3699951,10.7999878-0.6900024c1.9460144-1.5390015,3.6660156-3.3430176,5.1100159-5.3600159
		c3.2649841-4.4819946,5.9839783-9.3359985,8.0999756-14.4599915l8.5500183-17.5999985l2.5499878-4.8200073l2.8500061-4.8199768
		l3-4.6600037l3.3800049-4.4400024c6.2200012-7.730011,15.4499817-12.6300049,27.5299988-14.6900024
		c5.1340027-0.8420105,10.3559875-0.9970093,15.5299988-0.4599915c4.2309875,0.4599915,8.3880005,1.4369812,12.3800049,2.9100037
		c6.6950073,2.4709778,12.6029816,6.6989746,17.1009674,12.2399902c1.8000183,2.5599976,3.2150269,5.3699951,4.1990051,8.3399963
		c0.8280029,2.6839905,1.3310242,5.4559937,1.5,8.2600098c0.1380005,2.7359924,0.0150146,5.4779968-0.3699951,8.1900024
		c-0.3800049,2.6799927-0.82901,5.1999817-1.4299927,7.7299728c-0.598999,2.5299988-1.2000122,5-1.7999878,7.2600098
		c-0.5990295,2.2600098-1,4.4400024-1.2690125,6.5100098c-0.3009949,1.8479919-0.3009949,3.7330017,0,5.5799866
		c0.20401,1.67099,0.8999939,3.243988,2,4.519989c4.1180115,3.5030212,9.2229919,5.6370239,14.6090088,6.1100159
		c0.5299988,0,0.6799927,0.2999878,0.5299988,0.8399963l-8.6289978,27.769989
		c-0.2720032,0.7380066-1.0230103,1.184021-1.8010254,1.0700073h-76.8899689c-0.4500122,0-0.598999-0.2200012-0.4500122-0.6799927
		l9.8300171-27.6199951c0.2449951-0.6119995,0.84198-1.0100098,1.5-1
		c7.8699951-1.1500244,13.2709961-4.3600159,16.1999817-9.7900085c0.3699951-0.8399963,0.2200012-1.230011-0.598999-1.230011
		h-14.4809875c-0.8340149-0.0049744-1.5950012,0.4750061-1.9500122,1.230011
		c-5.54599,14.526001-14.7229919,25.7470093-27.5299988,33.6600037
		c-16.8800049,10.4129944-34.7829895,12.4799805-53.7099991,6.1999817c-2.0710144-0.6409912-4.0429993-1.565979-5.8600159-2.75
		c-1.6889954-1.0469971-3.25-2.2890015-4.6499939-3.6999817c-1.3519897-1.4039917-2.5579834-2.9420166-3.6000061-4.5899963
		c-1.0610046-1.6600037-1.9869995-3.4020081-2.769989-5.210022c-1.0289917-2.8529968-1.6360168-5.84198-1.7999878-8.8699951
		c-0.1430054-3.3760071,0.0309753-6.7569885,0.519989-10.1000061c0.230011-1.7599792,0.5299988-3.6699829,0.8999939-5.5899963
		c0.3699951-1.9199829,0.75-3.8199768,1.2000122-5.8099976l3.0799866-12.6999817c0.875-2.5049973,1.2160034-5.166008,1-7.8099899
		c-0.1239929-1.2450256-0.4629822-2.460022-1-3.5899963c-0.5490112-1-1.2210083-1.927002-2-2.7600098
		c-0.6399841-0.6990051-1.3439941-1.3380127-2.1000061-1.9100037l-2.25-1.6799927l-2.1799927-1.460022
		c-0.6430054-0.4269714-1.2460022-0.9119873-1.7999878-1.4499817c-0.5859985-0.5450134-0.7900085-1.3869934-0.5200195-2.1400146
		L104.4448013,89.0792313z"/>
	<path class="st2" d="M171.3551788,49.7594337c-0.8199768,0.4500122-1,1-0.3699951,1.6799927l9.1500244,7.1900024
		c0.7109985,0.7720032,1.9069824,0.8380127,2.6999817,0.1499939c6.7940063-4.0539856,13.8340149-7.6809998,21.07901-10.8599854
		c6.9440002-3.0050049,14.1210022-5.4370117,21.4609985-7.269989c11.7380066-2.756012,23.82901-3.6830139,35.8499908-2.75
		c-15.673996-6.3470135-34.477005-6.6540203-56.4099884-0.9200134
		C193.2552032,40.0874367,182.0431976,44.3694496,171.3551788,49.7594337 M168.055191,17.9294491
		c-1.2019958,0.2229919-2.0559998,1.2980042-2,2.519989v22.4999981c0.0800171,1.2999878,0.6000061,1.6000061,1.730011,1.0700073
		c37.3129883-19.1270123,73.9069824-21.5769939,109.7799835-7.3500061
		c-8.9299927-15.6799908-22.9999847-24.9400005-42.2409821-27.9299908
		C217.1121979,5.9124508,194.6881866,8.9754391,168.055191,17.9294491 M183.1352081,67.2794266
		c-1.5,0.6900024-3.4500122,0-5.9300232-2.1499939l-14.6399841-11.6999855
		c-0.6470032-0.4810181-1.1650085-1.1119995-1.5100098-1.8399963c-0.2340088-0.45401-0.3869934-0.9440002-0.4500122-1.4500122
		l-0.1499939-1v-34.5c-0.0069885-0.6490173,0.3919983-1.2330017,1-1.4599915l3.1100159-1.0200195l3.2999878-1.0699768
		l6.8200073-2.0700073c2.7000122-0.8399963,5.480011-1.6799927,8.4100037-2.4400024s6-1.4599915,9.0700073-2.1499939
		c4-0.8399966,8.0999756-1.529999,12.3099976-2.0600283c4.2099915-0.5299988,8.3999939-0.9199829,12.6699829-1.0699768
		c5.5360107-0.2310181,11.0820007-0.0039978,16.5800171,0.6799927c5.4639893,0.6820068,10.8450012,1.9150085,16.0589905,3.6799929
		c6.7439728,2.2630005,13.0589752,5.6430054,18.6809845,10c6.0490112,4.8529968,11.1369934,10.7950134,15,17.5200176
		c2.894989,4.9609985,5.2420044,10.2219849,7,15.6900024c0.519989,2.6699829-0.2999878,3.3599854-2.480011,2.0599976
		c-2.5749817-1.8520203-5.4049988-3.3200073-8.3999939-4.3600159c-3.1419983-1.0839844-6.3859863-1.8509827-9.6799927-2.2900085
		c-2.6830139-0.3959961-5.3880005-0.6259766-8.1000061-0.6899719c-2.7799988-0.0800171-5.4809875-0.0800171-8.2499847,0.0699768
		c-2.1799927,0.0800171-4.3509827,0.3099976-6.4499817,0.5400085l-6.3100281,0.6900024l-11.6999817,1.8299866
		c-7.6220093,1.8130188-15.0370178,4.4040222-22.1300049,7.730011
		C198.7411957,58.1844521,190.7801971,62.4704323,183.1352081,67.2794266"/>
	<path class="st2" d="M151.6249237,26.9491329c0-0.6099854-0.3000183-0.7599792-0.8200073-0.3800049l-8.3999939,5
		c3.9369812,0.3370056,7.4230042,2.6809978,9.2200012,6.2000103V26.9491329 M147.9549103,44.3191261
		c0.0240173,1.9840088-0.7630005,3.8910217-2.1799927,5.2800293c-2.7170105,2.8579712-7.2359924,2.9729919-10.0939941,0.2559814
		c-0.0880127-0.0830078-0.1730042-0.1690063-0.256012-0.2559814c-2.7990112-2.9640198-2.7990112-7.5960083,0-10.5600281
		c2.7170105-2.8580017,7.2359924-2.9729919,10.0939941-0.2559814c0.0880127,0.0830078,0.1730042,0.1690063,0.256012,0.2559814
		C147.1889191,40.4301491,147.9759064,42.3361549,147.9549103,44.3191261 M111.2649002,77.1591568
		c-0.1499939,0.5299988,0.1499939,0.8399963,0.8300171,0.8399963h59.859993c1.2799988,0,2-0.3099976,2.1799927-0.9200134
		l0.1500244-1.8399963c-0.3850098-0.7619934-0.9510193-1.4179993-1.6500244-1.9100037l-17.0699768-12.9400063
		c-2.4060059-1.6009827-4.5540161-3.5599976-6.3700256-5.8099976c-2.8399963,2.2170105-6.4079895,3.2870178-10,3
		c-1.8829956-0.1380005-3.7079773-0.7129822-5.3299866-1.6799927c-1.1340027-0.6669922-2.1679993-1.4920044-3.0700073-2.4500122
		c-2.0299988-2.1579895-3.1110001-5.0390015-3.0000076-8c-1.95401,2.0599976-3.7829895,4.2340088-5.4799805,6.5100098
		c-2.3840027,3.3389893-4.4440002,6.8980103-6.1500244,10.6300049
		C114.0389175,67.2661514,112.3978958,72.14814,111.2649002,77.1591568 M104.5649185,82.0391312
		c-0.0800171,1.3000183,0.4499817,1.9200134,1.6499939,1.9200134h70.2099991c1.730011,0,2.6300049-0.769989,2.7000122-2.3800049
		l0.75-7.6499939c0.4389954-0.9530029,0.1210022-2.0840149-0.75-2.6700134l-20.480011-15.2299843
		c-1.2690125-0.7489929-2.0339966-2.1260071-2-3.6000061V17.0791378c0.0799866-0.7600098-0.2200012-1.0700073-0.8999939-0.8399963
		c-1.6940002,0.6960144-3.3470154,1.4869995-4.9500122,2.3699951
		C123.6218948,34.7561378,108.2118912,55.8991432,104.5649185,82.0391312"/>
</g>
</svg>
